<?xml version="1.0" encoding="UTF-8" standalone="no"?>
<svg
   xmlns:dc="http://purl.org/dc/elements/1.1/"
   xmlns:cc="http://creativecommons.org/ns#"
   xmlns:rdf="http://www.w3.org/1999/02/22-rdf-syntax-ns#"
   xmlns:svg="http://www.w3.org/2000/svg"
   xmlns="http://www.w3.org/2000/svg"
   xmlns:xlink="http://www.w3.org/1999/xlink"
   xmlns:sodipodi="http://sodipodi.sourceforge.net/DTD/sodipodi-0.dtd"
   xmlns:inkscape="http://www.inkscape.org/namespaces/inkscape"
   width="139.10454mm"
   height="18.097391mm"
   viewBox="0 0 139.10454 18.097391"
   version="1.1"
   id="svg8"
   inkscape:version="1.0 (4035a4fb49, 2020-05-01)"
   sodipodi:docname="congratulations (de, text as path).svg">
  <defs
     id="defs2">
    <linearGradient
       inkscape:collect="always"
       id="linearGradient849">
      <stop
         style="stop-color:#ff0000;stop-opacity:1;"
         offset="0"
         id="stop845" />
      <stop
         id="stop853"
         offset="0.25091818"
         style="stop-color:#e7dd00;stop-opacity:1" />
      <stop
         style="stop-color:#00db78;stop-opacity:1"
         offset="0.53806061"
         id="stop855" />
      <stop
         id="stop857"
         offset="0.81272954"
         style="stop-color:#d000d5;stop-opacity:1" />
      <stop
         style="stop-color:#cf0000;stop-opacity:1"
         offset="1"
         id="stop847" />
    </linearGradient>
    <linearGradient
       inkscape:collect="always"
       xlink:href="#linearGradient849"
       id="linearGradient851"
       x1="17.508917"
       y1="89.85627"
       x2="201.53296"
       y2="108.72414"
       gradientUnits="userSpaceOnUse"
       gradientTransform="translate(30.403878,69.062003)" />
    <linearGradient
       gradientUnits="userSpaceOnUse"
       y2="108.72414"
       x2="201.53296"
       y1="89.85627"
       x1="17.508917"
       id="linearGradient851-2"
       xlink:href="#linearGradient849"
       inkscape:collect="always"
       gradientTransform="translate(1.1137689e-6)" />
    <filter
       inkscape:collect="always"
       style="color-interpolation-filters:sRGB"
       id="filter990"
       x="-0.0032025108"
       width="1.006405"
       y="-0.023568548"
       height="1.0471371">
      <feGaussianBlur
         inkscape:collect="always"
         stdDeviation="0.22291005"
         id="feGaussianBlur992" />
    </filter>
    <linearGradient
       y2="108.72414"
       x2="201.53296"
       y1="89.85627"
       x1="17.508917"
       gradientTransform="translate(30.403878,69.062003)"
       gradientUnits="userSpaceOnUse"
       id="linearGradient1836"
       xlink:href="#linearGradient849"
       inkscape:collect="always" />
    <linearGradient
       y2="108.72414"
       x2="201.53296"
       y1="89.85627"
       x1="17.508917"
       gradientTransform="translate(30.403878,69.062003)"
       gradientUnits="userSpaceOnUse"
       id="linearGradient1838"
       xlink:href="#linearGradient849"
       inkscape:collect="always" />
    <linearGradient
       y2="108.72414"
       x2="201.53296"
       y1="89.85627"
       x1="17.508917"
       gradientTransform="translate(30.403878,69.062003)"
       gradientUnits="userSpaceOnUse"
       id="linearGradient1840"
       xlink:href="#linearGradient849"
       inkscape:collect="always" />
    <linearGradient
       y2="108.72414"
       x2="201.53296"
       y1="89.85627"
       x1="17.508917"
       gradientTransform="translate(30.403878,69.062003)"
       gradientUnits="userSpaceOnUse"
       id="linearGradient1842"
       xlink:href="#linearGradient849"
       inkscape:collect="always" />
    <linearGradient
       y2="108.72414"
       x2="201.53296"
       y1="89.85627"
       x1="17.508917"
       gradientTransform="translate(30.403878,69.062003)"
       gradientUnits="userSpaceOnUse"
       id="linearGradient1844"
       xlink:href="#linearGradient849"
       inkscape:collect="always" />
    <linearGradient
       y2="108.72414"
       x2="201.53296"
       y1="89.85627"
       x1="17.508917"
       gradientTransform="translate(30.403878,69.062003)"
       gradientUnits="userSpaceOnUse"
       id="linearGradient1846"
       xlink:href="#linearGradient849"
       inkscape:collect="always" />
    <linearGradient
       y2="108.72414"
       x2="201.53296"
       y1="89.85627"
       x1="17.508917"
       gradientTransform="translate(30.403878,69.062003)"
       gradientUnits="userSpaceOnUse"
       id="linearGradient1848"
       xlink:href="#linearGradient849"
       inkscape:collect="always" />
    <linearGradient
       y2="108.72414"
       x2="201.53296"
       y1="89.85627"
       x1="17.508917"
       gradientTransform="translate(30.403878,69.062003)"
       gradientUnits="userSpaceOnUse"
       id="linearGradient1850"
       xlink:href="#linearGradient849"
       inkscape:collect="always" />
    <linearGradient
       y2="108.72414"
       x2="201.53296"
       y1="89.85627"
       x1="17.508917"
       gradientTransform="translate(30.403878,69.062003)"
       gradientUnits="userSpaceOnUse"
       id="linearGradient1852"
       xlink:href="#linearGradient849"
       inkscape:collect="always" />
    <linearGradient
       y2="108.72414"
       x2="201.53296"
       y1="89.85627"
       x1="17.508917"
       gradientTransform="translate(30.403878,69.062003)"
       gradientUnits="userSpaceOnUse"
       id="linearGradient1854"
       xlink:href="#linearGradient849"
       inkscape:collect="always" />
    <linearGradient
       y2="108.72414"
       x2="201.53296"
       y1="89.85627"
       x1="17.508917"
       gradientTransform="translate(30.403878,69.062003)"
       gradientUnits="userSpaceOnUse"
       id="linearGradient1856"
       xlink:href="#linearGradient849"
       inkscape:collect="always" />
    <linearGradient
       y2="108.72414"
       x2="201.53296"
       y1="89.85627"
       x1="17.508917"
       gradientTransform="translate(30.403878,69.062003)"
       gradientUnits="userSpaceOnUse"
       id="linearGradient1858"
       xlink:href="#linearGradient849"
       inkscape:collect="always" />
  </defs>
  <sodipodi:namedview
     id="base"
     pagecolor="#ffffff"
     bordercolor="#666666"
     borderopacity="1.0"
     inkscape:pageopacity="0.0"
     inkscape:pageshadow="2"
     inkscape:zoom="0.7"
     inkscape:cx="524.67194"
     inkscape:cy="211.77572"
     inkscape:document-units="mm"
     inkscape:current-layer="layer1"
     inkscape:document-rotation="0"
     showgrid="false"
     fit-margin-top="0"
     fit-margin-left="0"
     fit-margin-right="0"
     fit-margin-bottom="0"
     inkscape:window-width="1900"
     inkscape:window-height="1035"
     inkscape:window-x="10"
     inkscape:window-y="35"
     inkscape:window-maximized="0" />
  <metadata
     id="metadata5">
    <rdf:RDF>
      <cc:Work
         rdf:about="">
        <dc:format>image/svg+xml</dc:format>
        <dc:type
           rdf:resource="http://purl.org/dc/dcmitype/StillImage" />
        <dc:title></dc:title>
      </cc:Work>
    </rdf:RDF>
  </metadata>
  <g
     inkscape:label="Layer 1"
     inkscape:groupmode="layer"
     id="layer1"
     transform="translate(-30.403878,-69.062003)">
    <g
       style="font-size:22.5778px;line-height:14.6539px;font-family:'Liberation Sans';-inkscape-font-specification:'Liberation Sans';text-decoration:none;text-decoration-line:none;text-decoration-color:#000000;letter-spacing:0px;word-spacing:0px;fill:#cccccc;fill-opacity:0.323292;stroke:none;stroke-width:0.264583px;stroke-linecap:butt;stroke-linejoin:miter;stroke-opacity:1;filter:url(#filter990);stop-color:#000000"
       id="text835-0"
       aria-label="Glückwunsch!">
      <path
         id="path1793"
         style="font-style:normal;font-variant:normal;font-weight:normal;font-stretch:normal;font-size:22.5778px;font-family:'Bauhaus Hv BT';-inkscape-font-specification:'Bauhaus Hv BT';fill:#cccccc;fill-opacity:0.323292;stroke:none;stroke-width:0.264583px"
         d="m 47.833333,76.624684 q 0.01102,0.132292 0.01102,0.308681 0.01102,0.165365 0.01102,0.507118 0,1.267797 -0.198438,2.381253 -0.198438,1.102431 -0.595313,2.061547 -0.948091,2.259985 -2.943493,3.571879 -1.984377,1.311893 -4.475872,1.311893 -1.642624,0 -3.141931,-0.617361 -1.488282,-0.628386 -2.645836,-1.78594 -1.157553,-1.157553 -1.774915,-2.634811 -0.617361,-1.488283 -0.617361,-3.141931 0,-1.642623 0.606337,-3.108857 0.617362,-1.477258 1.785939,-2.645836 1.179602,-1.179602 2.711982,-1.796964 1.543405,-0.617361 3.296271,-0.617361 1.730818,0 3.252173,0.628386 1.521356,0.628386 2.888371,1.918231 L 42.64088,76.12859 q -0.749654,-0.551216 -1.411113,-0.804775 -0.661459,-0.25356 -1.344966,-0.25356 -1.499307,0 -2.50252,1.003213 -0.992189,0.992189 -0.992189,2.491496 0,1.444185 0.937067,2.436374 0.937067,0.992188 2.293058,0.992188 0.826824,0 1.521356,-0.363802 0.705556,-0.374827 1.179602,-1.080383 h -3.47266 v -3.924657 z" />
      <path
         id="path1795"
         style="font-style:normal;font-variant:normal;font-weight:normal;font-stretch:normal;font-size:22.5778px;font-family:'Bauhaus Hv BT';-inkscape-font-specification:'Bauhaus Hv BT';fill:#cccccc;fill-opacity:0.323292;stroke:none;stroke-width:0.264583px"
         d="M 49.255471,86.491447 V 70.704626 h 4.542018 v 15.786821 z" />
      <path
         id="path1797"
         style="font-style:normal;font-variant:normal;font-weight:normal;font-stretch:normal;font-size:22.5778px;font-family:'Bauhaus Hv BT';-inkscape-font-specification:'Bauhaus Hv BT';fill:#cccccc;fill-opacity:0.323292;stroke:none;stroke-width:0.264583px"
         d="m 60.015203,75.004109 v 6.570493 q 0,0.396876 0.231511,0.650435 0.242535,0.242535 0.606337,0.242535 0.363803,0 0.595313,-0.242535 0.242535,-0.253559 0.242535,-0.650435 v -6.570493 h 4.542019 v 5.688548 q 0,1.322918 -0.242535,2.193839 -0.231511,0.859897 -0.760678,1.598526 -0.749653,1.036286 -1.907207,1.620574 -1.157553,0.584289 -2.469447,0.584289 -1.311893,0 -2.480471,-0.584289 -1.157553,-0.595313 -1.918231,-1.642623 -0.529167,-0.727605 -0.760678,-1.598526 -0.231511,-0.870921 -0.231511,-2.17179 v -5.688548 z m 1.245748,-3.29627 q 0,-0.639411 0.463021,-1.113456 0.474046,-0.474046 1.113456,-0.474046 0.661459,0 1.124481,0.474046 0.463021,0.463021 0.463021,1.113456 0,0.683507 -0.451997,1.135504 -0.451997,0.440973 -1.135505,0.440973 -0.661459,0 -1.12448,-0.451997 -0.451997,-0.463021 -0.451997,-1.12448 z m -4.001827,0 q 0,-0.639411 0.474046,-1.113456 0.474045,-0.474046 1.113456,-0.474046 0.650434,0 1.113456,0.474046 0.463021,0.463021 0.463021,1.113456 0,0.683507 -0.451997,1.135504 -0.440973,0.440973 -1.12448,0.440973 -0.672484,0 -1.135505,-0.451997 -0.451997,-0.463021 -0.451997,-1.12448 z" />
      <path
         id="path1799"
         style="font-style:normal;font-variant:normal;font-weight:normal;font-stretch:normal;font-size:22.5778px;font-family:'Bauhaus Hv BT';-inkscape-font-specification:'Bauhaus Hv BT';fill:#cccccc;fill-opacity:0.323292;stroke:none;stroke-width:0.264583px"
         d="m 75.63666,79.27052 h -1.620575 q -0.837848,0 -1.322918,0.396875 -0.48507,0.396876 -0.48507,1.069359 0,0.650435 0.48507,1.04731 0.496094,0.396876 1.322918,0.396876 h 1.620575 v 4.310507 h -1.422137 q -3.009639,0 -4.850699,-1.598525 -1.830037,-1.598526 -1.830037,-4.156168 0,-2.557641 1.841061,-4.145143 1.841061,-1.587502 4.839675,-1.587502 h 1.422137 z" />
      <path
         id="path1801"
         style="font-style:normal;font-variant:normal;font-weight:normal;font-stretch:normal;font-size:22.5778px;font-family:'Bauhaus Hv BT';-inkscape-font-specification:'Bauhaus Hv BT';fill:#cccccc;fill-opacity:0.323292;stroke:none;stroke-width:0.264583px"
         d="M 76.992651,86.491447 V 70.704626 h 4.542019 v 7.772143 h 0.15434 q 0.319705,0 0.540192,-0.253559 0.220486,-0.253559 0.540191,-1.168578 l 0.727605,-2.050523 h 4.696359 l -1.333942,3.384466 q -0.209462,0.529167 -0.573265,0.926042 -0.363802,0.385851 -0.892969,0.650435 1.289845,0.4079 1.863109,1.234723 0.573265,0.826824 0.573265,2.315107 v 2.976565 H 83.430852 V 83.94483 q 0,-0.926042 -0.407899,-1.355991 -0.4079,-0.429948 -1.267797,-0.429948 H 81.53467 v 4.332556 z" />
      <path
         id="path1803"
         style="font-style:normal;font-variant:normal;font-weight:normal;font-stretch:normal;font-size:22.5778px;font-family:'Bauhaus Hv BT';-inkscape-font-specification:'Bauhaus Hv BT';fill:#cccccc;fill-opacity:0.323292;stroke:none;stroke-width:0.264583px"
         d="M 105.73305,75.004109 V 80.8029 q 0,1.267796 -0.23151,2.138717 -0.23152,0.859897 -0.73863,1.565453 -0.76068,1.047311 -1.87414,1.620575 -1.11345,0.56224 -2.39227,0.56224 -0.870925,0 -1.620579,-0.297656 -0.738629,-0.297657 -1.433161,-0.915019 -0.694532,0.628386 -1.433161,0.926043 -0.727605,0.286632 -1.587502,0.286632 -1.04731,0 -2.01745,-0.396875 -0.959115,-0.396876 -1.730818,-1.157554 -0.782726,-0.771702 -1.135504,-1.774915 -0.352778,-1.014237 -0.352778,-2.557641 v -5.798791 h 4.464848 v 6.61459 q 0,0.374827 0.220486,0.617362 0.220487,0.231511 0.573265,0.231511 0.330729,0 0.56224,-0.231511 0.231511,-0.242535 0.231511,-0.617362 v -6.61459 h 4.420751 v 6.61459 q 0,0.374827 0.220486,0.617362 0.231506,0.231511 0.573266,0.231511 0.34175,0 0.56224,-0.231511 0.22048,-0.242535 0.22048,-0.617362 v -6.61459 z" />
      <path
         id="path1805"
         style="font-style:normal;font-variant:normal;font-weight:normal;font-stretch:normal;font-size:22.5778px;font-family:'Bauhaus Hv BT';-inkscape-font-specification:'Bauhaus Hv BT';fill:#cccccc;fill-opacity:0.323292;stroke:none;stroke-width:0.264583px"
         d="m 111.85154,75.004109 v 6.570493 q 0,0.396876 0.23151,0.650435 0.24254,0.242535 0.60634,0.242535 0.3638,0 0.59531,-0.242535 0.24254,-0.253559 0.24254,-0.650435 v -6.570493 h 4.54202 v 5.688548 q 0,1.322918 -0.24254,2.193839 -0.23151,0.859897 -0.76067,1.598526 -0.74966,1.036286 -1.90721,1.620574 -1.15755,0.584289 -2.46945,0.584289 -1.31189,0 -2.48047,-0.584289 -1.15755,-0.595313 -1.91823,-1.642623 -0.52917,-0.727605 -0.76068,-1.598526 -0.23151,-0.870921 -0.23151,-2.17179 v -5.688548 z" />
      <path
         id="path1807"
         style="font-style:normal;font-variant:normal;font-weight:normal;font-stretch:normal;font-size:22.5778px;font-family:'Bauhaus Hv BT';-inkscape-font-specification:'Bauhaus Hv BT';fill:#cccccc;fill-opacity:0.323292;stroke:none;stroke-width:0.264583px"
         d="m 125.85242,86.491447 v -6.570492 q 0,-0.396876 -0.24254,-0.650435 -0.23151,-0.253559 -0.59531,-0.253559 -0.3638,0 -0.60634,0.253559 -0.23151,0.253559 -0.23151,0.650435 v 6.570492 h -4.53099 V 80.8029 q 0,-1.333942 0.23151,-2.193839 0.23151,-0.870921 0.76068,-1.598526 0.74965,-1.04731 1.9072,-1.642623 1.16858,-0.595313 2.46945,-0.595313 1.3119,0 2.45842,0.595313 1.15756,0.584289 1.91824,1.642623 0.52916,0.716581 0.76067,1.598526 0.24254,0.881945 0.24254,2.193839 v 5.688547 z" />
      <path
         id="path1809"
         style="font-style:normal;font-variant:normal;font-weight:normal;font-stretch:normal;font-size:22.5778px;font-family:'Bauhaus Hv BT';-inkscape-font-specification:'Bauhaus Hv BT';fill:#cccccc;fill-opacity:0.323292;stroke:none;stroke-width:0.264583px"
         d="m 131.7835,86.491447 v -3.946705 h 2.86633 q 0.26458,0 0.4079,-0.110243 0.14331,-0.110243 0.14331,-0.297657 0,-0.121267 -0.0551,-0.209462 -0.0551,-0.08819 -0.19844,-0.176389 l -0.51814,-0.297656 q -1.6757,-0.992189 -2.17179,-1.675696 -0.4961,-0.694532 -0.4961,-1.70877 0,-1.444185 1.03629,-2.24896 1.03629,-0.8158 2.8994,-0.8158 h 4.33255 v 3.649049 h -2.53559 q -0.20946,0 -0.34175,0.121268 -0.1323,0.121267 -0.1323,0.308681 0,0.09922 0.0661,0.187413 0.0662,0.08819 0.18741,0.15434 l 0.452,0.275608 q 0.011,0 0.0441,0.02205 2.82222,1.697745 2.82222,3.494708 0,0.8158 -0.37482,1.510332 -0.37483,0.694532 -1.04731,1.135504 -0.52917,0.33073 -1.20165,0.48507 -0.67249,0.143316 -2.09463,0.143316 h -0.2756 z" />
      <path
         id="path1811"
         style="font-style:normal;font-variant:normal;font-weight:normal;font-stretch:normal;font-size:22.5778px;font-family:'Bauhaus Hv BT';-inkscape-font-specification:'Bauhaus Hv BT';fill:#cccccc;fill-opacity:0.323292;stroke:none;stroke-width:0.264583px"
         d="m 149.66494,79.27052 h -1.62057 q -0.83785,0 -1.32292,0.396875 -0.48507,0.396876 -0.48507,1.069359 0,0.650435 0.48507,1.04731 0.49609,0.396876 1.32292,0.396876 h 1.62057 v 4.310507 h -1.42213 q -3.00964,0 -4.8507,-1.598525 -1.83004,-1.598526 -1.83004,-4.156168 0,-2.557641 1.84106,-4.145143 1.84106,-1.587502 4.83968,-1.587502 h 1.42213 z" />
      <path
         id="path1813"
         style="font-style:normal;font-variant:normal;font-weight:normal;font-stretch:normal;font-size:22.5778px;font-family:'Bauhaus Hv BT';-inkscape-font-specification:'Bauhaus Hv BT';fill:#cccccc;fill-opacity:0.323292;stroke:none;stroke-width:0.264583px"
         d="M 151.02093,86.491447 V 70.704626 h 4.54202 v 5.08221 q 0.59532,-0.507119 1.2237,-0.760678 0.62839,-0.253559 1.30087,-0.253559 1.74184,0 2.71198,1.267796 0.97014,1.256772 0.97014,3.560854 v 6.890198 h -4.54202 v -6.570492 q 0,-0.396876 -0.24253,-0.650435 -0.23151,-0.253559 -0.59531,-0.253559 -0.36381,0 -0.59532,0.253559 -0.23151,0.253559 -0.23151,0.650435 v 6.570492 z" />
      <path
         id="path1815"
         style="font-style:normal;font-variant:normal;font-weight:normal;font-stretch:normal;font-size:22.5778px;font-family:'Bauhaus Hv BT';-inkscape-font-specification:'Bauhaus Hv BT';fill:#cccccc;fill-opacity:0.323292;stroke:none;stroke-width:0.264583px"
         d="m 164.37138,80.758803 -0.47405,-10.054177 h 5.14836 l -0.51815,10.054177 z m -0.47405,3.362416 q 0,-1.102431 0.72761,-1.852085 0.73863,-0.749653 1.84106,-0.749653 1.10243,0 1.85208,0.749653 0.74966,0.749654 0.74966,1.852085 0,1.058335 -0.77171,1.819013 -0.76067,0.749653 -1.83003,0.749653 -1.08039,0 -1.83004,-0.749653 -0.73863,-0.749654 -0.73863,-1.819013 z" />
    </g>
    <g
       style="font-size:22.5778px;line-height:14.6539px;font-family:'Liberation Sans';-inkscape-font-specification:'Liberation Sans';text-decoration:none;text-decoration-line:none;text-decoration-color:#000000;letter-spacing:0px;word-spacing:0px;fill:url(#linearGradient851);fill-opacity:1;stroke:none;stroke-width:0.264583px;stroke-linecap:butt;stroke-linejoin:miter;stroke-opacity:1;stop-color:#000000"
       id="text835"
       aria-label="Glückwunsch!">
      <path
         id="path1768"
         style="font-style:normal;font-variant:normal;font-weight:normal;font-stretch:normal;font-size:22.5778px;font-family:'Bauhaus Hv BT';-inkscape-font-specification:'Bauhaus Hv BT';fill:url(#linearGradient1836);fill-opacity:1;stroke:none;stroke-width:0.264583px"
         d="m 46.774997,75.56635 q 0.01102,0.132291 0.01102,0.30868 0.01102,0.165365 0.01102,0.507119 0,1.267796 -0.198437,2.381252 -0.198438,1.102432 -0.595313,2.061548 -0.948092,2.259985 -2.943493,3.571878 -1.984377,1.311894 -4.475873,1.311894 -1.642623,0 -3.14193,-0.617362 -1.488283,-0.628386 -2.645836,-1.785939 -1.157553,-1.157553 -1.774915,-2.634812 -0.617362,-1.488283 -0.617362,-3.14193 0,-1.642623 0.606338,-3.108857 0.617362,-1.477259 1.785939,-2.645836 1.179602,-1.179602 2.711982,-1.796964 1.543404,-0.617362 3.296271,-0.617362 1.730817,0 3.252173,0.628386 1.521356,0.628386 2.888371,1.918231 l -3.362416,3.163979 q -0.749654,-0.551216 -1.411113,-0.804775 -0.661459,-0.253559 -1.344967,-0.253559 -1.499307,0 -2.50252,1.003213 -0.992188,0.992188 -0.992188,2.491495 0,1.444186 0.937067,2.436374 0.937067,0.992189 2.293058,0.992189 0.826824,0 1.521355,-0.363803 0.705557,-0.374826 1.179602,-1.080383 H 37.790179 V 75.56635 Z" />
      <path
         id="path1770"
         style="font-style:normal;font-variant:normal;font-weight:normal;font-stretch:normal;font-size:22.5778px;font-family:'Bauhaus Hv BT';-inkscape-font-specification:'Bauhaus Hv BT';fill:url(#linearGradient1838);fill-opacity:1;stroke:none;stroke-width:0.264583px"
         d="M 48.197134,85.433113 V 69.646291 h 4.542019 v 15.786822 z" />
      <path
         id="path1772"
         style="font-style:normal;font-variant:normal;font-weight:normal;font-stretch:normal;font-size:22.5778px;font-family:'Bauhaus Hv BT';-inkscape-font-specification:'Bauhaus Hv BT';fill:url(#linearGradient1840);fill-opacity:1;stroke:none;stroke-width:0.264583px"
         d="m 58.956867,73.945775 v 6.570493 q 0,0.396875 0.231511,0.650435 0.242535,0.242534 0.606337,0.242534 0.363803,0 0.595313,-0.242534 0.242535,-0.25356 0.242535,-0.650435 v -6.570493 h 4.542019 v 5.688547 q 0,1.322918 -0.242535,2.19384 -0.231511,0.859896 -0.760678,1.598525 -0.749654,1.036286 -1.907207,1.620575 -1.157553,0.584289 -2.469447,0.584289 -1.311894,0 -2.480471,-0.584289 -1.157553,-0.595313 -1.918231,-1.642623 -0.529167,-0.727605 -0.760678,-1.598526 -0.231511,-0.870921 -0.231511,-2.171791 v -5.688547 z m 1.245748,-3.296271 q 0,-0.63941 0.463021,-1.113456 0.474046,-0.474045 1.113456,-0.474045 0.661459,0 1.12448,0.474045 0.463022,0.463022 0.463022,1.113456 0,0.683508 -0.451997,1.135505 -0.451997,0.440973 -1.135505,0.440973 -0.661459,0 -1.12448,-0.451997 -0.451997,-0.463022 -0.451997,-1.124481 z m -4.001827,0 q 0,-0.63941 0.474045,-1.113456 0.474046,-0.474045 1.113456,-0.474045 0.650435,0 1.113456,0.474045 0.463022,0.463022 0.463022,1.113456 0,0.683508 -0.451997,1.135505 -0.440973,0.440973 -1.124481,0.440973 -0.672483,0 -1.135504,-0.451997 -0.451997,-0.463022 -0.451997,-1.124481 z" />
      <path
         id="path1774"
         style="font-style:normal;font-variant:normal;font-weight:normal;font-stretch:normal;font-size:22.5778px;font-family:'Bauhaus Hv BT';-inkscape-font-specification:'Bauhaus Hv BT';fill:url(#linearGradient1842);fill-opacity:1;stroke:none;stroke-width:0.264583px"
         d="m 74.578324,78.212186 h -1.620575 q -0.837848,0 -1.322918,0.396875 -0.48507,0.396875 -0.48507,1.069359 0,0.650434 0.48507,1.04731 0.496094,0.396875 1.322918,0.396875 h 1.620575 v 4.310508 h -1.422137 q -3.009639,0 -4.8507,-1.598526 -1.830036,-1.598526 -1.830036,-4.156167 0,-2.557642 1.841061,-4.145143 1.841061,-1.587502 4.839675,-1.587502 h 1.422137 z" />
      <path
         id="path1776"
         style="font-style:normal;font-variant:normal;font-weight:normal;font-stretch:normal;font-size:22.5778px;font-family:'Bauhaus Hv BT';-inkscape-font-specification:'Bauhaus Hv BT';fill:url(#linearGradient1844);fill-opacity:1;stroke:none;stroke-width:0.264583px"
         d="M 75.934315,85.433113 V 69.646291 h 4.542019 v 7.772144 h 0.15434 q 0.319705,0 0.540192,-0.253559 0.220486,-0.25356 0.540191,-1.168578 l 0.727605,-2.050523 h 4.696359 l -1.333942,3.384465 q -0.209462,0.529167 -0.573265,0.926043 -0.363802,0.385851 -0.89297,0.650435 1.289846,0.407899 1.86311,1.234723 0.573264,0.826824 0.573264,2.315107 v 2.976565 h -4.398702 v -2.546617 q 0,-0.926043 -0.4079,-1.355991 -0.407899,-0.429948 -1.267796,-0.429948 h -0.220486 v 4.332556 z" />
      <path
         id="path1778"
         style="font-style:normal;font-variant:normal;font-weight:normal;font-stretch:normal;font-size:22.5778px;font-family:'Bauhaus Hv BT';-inkscape-font-specification:'Bauhaus Hv BT';fill:url(#linearGradient1846);fill-opacity:1;stroke:none;stroke-width:0.264583px"
         d="m 104.67471,73.945775 v 5.798791 q 0,1.267796 -0.23151,2.138717 -0.23151,0.859897 -0.73863,1.565453 -0.76068,1.04731 -1.87413,1.620575 -1.11346,0.56224 -2.392281,0.56224 -0.870921,0 -1.620574,-0.297657 -0.738629,-0.297656 -1.433161,-0.915018 -0.694532,0.628386 -1.433162,0.926043 -0.727604,0.286632 -1.587501,0.286632 -1.04731,0 -2.01745,-0.396876 Q 90.387195,84.8378 89.615493,84.077122 88.832767,83.30542 88.479988,82.302207 88.12721,81.28797 88.12721,79.744566 v -5.798791 h 4.464849 v 6.61459 q 0,0.374827 0.220486,0.617362 0.220486,0.23151 0.573264,0.23151 0.33073,0 0.562241,-0.23151 0.23151,-0.242535 0.23151,-0.617362 v -6.61459 h 4.420751 v 6.61459 q 0,0.374827 0.220487,0.617362 0.23151,0.23151 0.573264,0.23151 0.341754,0 0.56224,-0.23151 0.220488,-0.242535 0.220488,-0.617362 v -6.61459 z" />
      <path
         id="path1780"
         style="font-style:normal;font-variant:normal;font-weight:normal;font-stretch:normal;font-size:22.5778px;font-family:'Bauhaus Hv BT';-inkscape-font-specification:'Bauhaus Hv BT';fill:url(#linearGradient1848);fill-opacity:1;stroke:none;stroke-width:0.264583px"
         d="m 110.79321,73.945775 v 6.570493 q 0,0.396875 0.23151,0.650435 0.24253,0.242534 0.60634,0.242534 0.3638,0 0.59531,-0.242534 0.24253,-0.25356 0.24253,-0.650435 v -6.570493 h 4.54202 v 5.688547 q 0,1.322918 -0.24253,2.19384 -0.23151,0.859896 -0.76068,1.598525 -0.74965,1.036286 -1.90721,1.620575 -1.15755,0.584289 -2.46944,0.584289 -1.3119,0 -2.48048,-0.584289 -1.15755,-0.595313 -1.91823,-1.642623 -0.52916,-0.727605 -0.76068,-1.598526 -0.23151,-0.870921 -0.23151,-2.171791 v -5.688547 z" />
      <path
         id="path1782"
         style="font-style:normal;font-variant:normal;font-weight:normal;font-stretch:normal;font-size:22.5778px;font-family:'Bauhaus Hv BT';-inkscape-font-specification:'Bauhaus Hv BT';fill:url(#linearGradient1850);fill-opacity:1;stroke:none;stroke-width:0.264583px"
         d="M 124.79408,85.433113 V 78.86262 q 0,-0.396875 -0.24253,-0.650434 -0.23151,-0.25356 -0.59531,-0.25356 -0.36381,0 -0.60634,0.25356 -0.23151,0.253559 -0.23151,0.650434 v 6.570493 h -4.531 v -5.688547 q 0,-1.333943 0.23151,-2.193839 0.23151,-0.870921 0.76068,-1.598526 0.74965,-1.04731 1.90721,-1.642624 1.16858,-0.595313 2.46945,-0.595313 1.31189,0 2.45842,0.595313 1.15755,0.584289 1.91823,1.642624 0.52917,0.71658 0.76068,1.598526 0.24253,0.881945 0.24253,2.193839 v 5.688547 z" />
      <path
         id="path1784"
         style="font-style:normal;font-variant:normal;font-weight:normal;font-stretch:normal;font-size:22.5778px;font-family:'Bauhaus Hv BT';-inkscape-font-specification:'Bauhaus Hv BT';fill:url(#linearGradient1852);fill-opacity:1;stroke:none;stroke-width:0.264583px"
         d="m 130.72517,85.433113 v -3.946705 h 2.86632 q 0.26458,0 0.4079,-0.110243 0.14332,-0.110244 0.14332,-0.297657 0,-0.121268 -0.0551,-0.209462 -0.0551,-0.08819 -0.19843,-0.176389 L 133.371,80.395 q -1.67569,-0.992188 -2.17179,-1.675696 -0.49609,-0.694532 -0.49609,-1.708769 0,-1.444185 1.03628,-2.248961 1.03629,-0.815799 2.8994,-0.815799 h 4.33256 v 3.649049 h -2.5356 q -0.20946,0 -0.34175,0.121267 -0.13229,0.121268 -0.13229,0.308681 0,0.09922 0.0661,0.187414 0.0661,0.08819 0.18742,0.15434 l 0.45199,0.275608 q 0.011,0 0.0441,0.02205 2.82223,1.697744 2.82223,3.494708 0,0.815799 -0.37483,1.510331 -0.37483,0.694532 -1.04731,1.135505 -0.52917,0.33073 -1.20165,0.48507 -0.67248,0.143316 -2.09462,0.143316 h -0.27561 z" />
      <path
         id="path1786"
         style="font-style:normal;font-variant:normal;font-weight:normal;font-stretch:normal;font-size:22.5778px;font-family:'Bauhaus Hv BT';-inkscape-font-specification:'Bauhaus Hv BT';fill:url(#linearGradient1854);fill-opacity:1;stroke:none;stroke-width:0.264583px"
         d="m 148.60661,78.212186 h -1.62058 q -0.83785,0 -1.32292,0.396875 -0.48507,0.396875 -0.48507,1.069359 0,0.650434 0.48507,1.04731 0.4961,0.396875 1.32292,0.396875 h 1.62058 v 4.310508 h -1.42214 q -3.00964,0 -4.8507,-1.598526 -1.83004,-1.598526 -1.83004,-4.156167 0,-2.557642 1.84106,-4.145143 1.84106,-1.587502 4.83968,-1.587502 h 1.42214 z" />
      <path
         id="path1788"
         style="font-style:normal;font-variant:normal;font-weight:normal;font-stretch:normal;font-size:22.5778px;font-family:'Bauhaus Hv BT';-inkscape-font-specification:'Bauhaus Hv BT';fill:url(#linearGradient1856);fill-opacity:1;stroke:none;stroke-width:0.264583px"
         d="M 149.9626,85.433113 V 69.646291 h 4.54202 v 5.082211 q 0.59531,-0.507119 1.22369,-0.760678 0.62839,-0.25356 1.30087,-0.25356 1.74185,0 2.71199,1.267797 0.97014,1.256772 0.97014,3.560854 v 6.890198 h -4.54202 V 78.86262 q 0,-0.396875 -0.24254,-0.650434 -0.23151,-0.25356 -0.59531,-0.25356 -0.3638,0 -0.59531,0.25356 -0.23151,0.253559 -0.23151,0.650434 v 6.570493 z" />
      <path
         id="path1790"
         style="font-style:normal;font-variant:normal;font-weight:normal;font-stretch:normal;font-size:22.5778px;font-family:'Bauhaus Hv BT';-inkscape-font-specification:'Bauhaus Hv BT';fill:url(#linearGradient1858);fill-opacity:1;stroke:none;stroke-width:0.264583px"
         d="M 163.31304,79.700468 162.839,69.646291 h 5.14835 l -0.51814,10.054177 z m -0.47404,3.362417 q 0,-1.102432 0.7276,-1.852085 0.73863,-0.749654 1.84106,-0.749654 1.10243,0 1.85209,0.749654 0.74965,0.749653 0.74965,1.852085 0,1.058334 -0.7717,1.819012 -0.76068,0.749654 -1.83004,0.749654 -1.08038,0 -1.83004,-0.749654 -0.73862,-0.749653 -0.73862,-1.819012 z" />
    </g>
  </g>
</svg>
