<?xml version="1.0" encoding="UTF-8" standalone="no"?>
<svg
   xmlns:dc="http://purl.org/dc/elements/1.1/"
   xmlns:cc="http://creativecommons.org/ns#"
   xmlns:rdf="http://www.w3.org/1999/02/22-rdf-syntax-ns#"
   xmlns:svg="http://www.w3.org/2000/svg"
   xmlns="http://www.w3.org/2000/svg"
   xmlns:sodipodi="http://sodipodi.sourceforge.net/DTD/sodipodi-0.dtd"
   xmlns:inkscape="http://www.inkscape.org/namespaces/inkscape"
   width="73.620483mm"
   height="16.871359mm"
   viewBox="0 0 73.620482 16.871359"
   version="1.1"
   id="svg8"
   inkscape:version="1.0 (4035a4fb49, 2020-05-01)"
   sodipodi:docname="logo (text as path).svg">
  <defs
     id="defs2" />
  <sodipodi:namedview
     id="base"
     pagecolor="#ffffff"
     bordercolor="#666666"
     borderopacity="1.0"
     inkscape:pageopacity="0.0"
     inkscape:pageshadow="2"
     inkscape:zoom="0.70911897"
     inkscape:cx="-304.89047"
     inkscape:cy="417.96669"
     inkscape:document-units="mm"
     inkscape:current-layer="layer1"
     inkscape:document-rotation="0"
     showgrid="false"
     fit-margin-top="0"
     fit-margin-left="0"
     fit-margin-right="0"
     fit-margin-bottom="0"
     inkscape:window-width="1900"
     inkscape:window-height="1035"
     inkscape:window-x="10"
     inkscape:window-y="35"
     inkscape:window-maximized="0" />
  <metadata
     id="metadata5">
    <rdf:RDF>
      <cc:Work
         rdf:about="">
        <dc:format>image/svg+xml</dc:format>
        <dc:type
           rdf:resource="http://purl.org/dc/dcmitype/StillImage" />
        <dc:title></dc:title>
      </cc:Work>
    </rdf:RDF>
  </metadata>
  <g
     inkscape:label="Layer 1"
     inkscape:groupmode="layer"
     id="layer1"
     transform="translate(-62.354239,-37.912982)">
    <g
       style="font-size:19.7556px;line-height:12.8221px;font-family:'Liberation Sans';-inkscape-font-specification:'Liberation Sans';text-decoration:none;text-decoration-line:none;text-decoration-color:#000000;letter-spacing:0px;word-spacing:0px;fill:#ff0000;stroke:none;stroke-width:0.264583px;stroke-linecap:butt;stroke-linejoin:miter;stroke-opacity:1;stop-color:#000000"
       id="text12"
       aria-label="$ sudo -ku">
      <path
         id="path837"
         style="fill:#999999"
         d="m 69.83976,47.810074 v 2.295817 q 0,1.745978 -0.713826,2.488743 -0.713825,0.733118 -2.488742,0.964628 v 0.414791 q 0,0.424437 -0.144695,0.617362 -0.135048,0.192926 -0.443729,0.192926 -0.327974,0 -0.463022,-0.183279 -0.135048,-0.18328 -0.135048,-0.627009 v -0.414791 q -1.79421,-0.33762 -2.450157,-0.906751 -0.646302,-0.578777 -0.646302,-1.938904 v -0.09646 -1.003214 q 0,-0.954982 0.376206,-1.360127 0.385851,-0.405144 1.263664,-0.405144 0.877812,0 1.254017,0.405144 0.385852,0.395498 0.385852,1.360127 v 0.607716 q 0,1.012861 0.366559,1.485529 0.366559,0.472668 1.147908,0.472668 0.742764,0 1.138262,-0.41479 0.405144,-0.424437 0.405144,-1.205786 0,-0.607717 -0.241157,-1.003214 -0.231511,-0.405145 -0.762057,-0.713826 L 64.071279,46.72969 q -0.848874,-0.482315 -1.282957,-1.022507 -0.434083,-0.540192 -0.434083,-1.099677 v -0.03858 -2.363341 q 0,-1.553052 0.684887,-2.209 0.684886,-0.655948 2.411572,-0.877812 v -0.414791 q 0,-0.41479 0.135048,-0.59807 0.144695,-0.192925 0.463022,-0.192925 0.318328,0 0.453376,0.183279 0.135048,0.173633 0.135048,0.607716 v 0.414791 q 1.6881,0.192926 2.430865,0.974275 0.75241,0.771703 0.75241,2.363341 v 0.07717 0.395498 q 0,0.945336 -0.376205,1.331188 -0.376205,0.385851 -1.244371,0.385851 -0.877813,0 -1.244372,-0.376205 -0.356912,-0.385851 -0.356912,-1.340834 v -0.549839 q 0,-0.974275 -0.385852,-1.437297 -0.376205,-0.463021 -1.176847,-0.463021 -0.704179,0 -1.138262,0.395497 -0.424437,0.385852 -0.424437,1.032153 0,0.5209 0.241157,0.916398 0.250804,0.385851 0.790996,0.704179 l 3.868162,2.28617 q 0.771703,0.453376 1.118969,0.926044 0.347267,0.472668 0.347267,1.070738 z" />
      <path
         id="path839"
         style="font-style:normal;font-variant:normal;font-weight:normal;font-stretch:normal;font-size:19.7556px;font-family:'Amelia BT';-inkscape-font-specification:'Amelia BT';stroke:none;stroke-width:0.264583px"
         d="m 78.270616,48.957983 q -1.427651,0 -2.209001,-0.694533 -0.771703,-0.704179 -0.771703,-1.996782 0,-1.350481 1.041799,-2.180061 1.051446,-0.839228 2.7299,-0.839228 1.639869,0 2.662376,0.694533 1.032153,0.694533 1.032153,1.774917 0,0.70418 -0.491961,1.138263 -0.491961,0.424436 -1.302249,0.424436 -0.569131,0 -0.897105,-0.279742 -0.318327,-0.289389 -0.49196,-0.926044 -0.173634,-0.684886 -0.588424,-1.041799 -0.405144,-0.356913 -1.003214,-0.356913 -0.67524,0 -1.11897,0.453376 -0.443729,0.453375 -0.443729,1.138262 0,0.839227 0.491961,1.225079 0.491961,0.376205 1.581991,0.376205 h 1.45659 q 1.35048,0 2.112537,0.723472 0.771703,0.723471 0.771703,1.987135 0,1.369773 -1.061092,2.199354 -1.061091,0.819935 -2.826362,0.819935 -1.601284,0 -2.633437,-0.704179 -1.022507,-0.713826 -1.022507,-1.823149 0,-0.742764 0.482315,-1.176847 0.482314,-0.44373 1.292602,-0.44373 0.434083,0 0.762057,0.202572 0.33762,0.192926 0.424437,0.463022 0.01929,0.05788 0.04823,0.154341 0.617363,1.909965 1.832795,1.909965 0.607717,0 1.051446,-0.463022 0.443729,-0.472668 0.443729,-1.138262 0,-0.829581 -0.511253,-1.225079 -0.511253,-0.395497 -1.581992,-0.395497 z" />
      <path
         id="path841"
         style="font-style:normal;font-variant:normal;font-weight:normal;font-stretch:normal;font-size:19.7556px;font-family:'Amelia BT';-inkscape-font-specification:'Amelia BT';stroke:none;stroke-width:0.264583px"
         d="m 91.447446,49.584991 v 0.44373 q 0,0.762057 -0.125402,1.225078 -0.115755,0.453376 -0.385851,0.868166 -0.491961,0.742765 -1.321542,1.109324 -0.819934,0.366559 -1.977489,0.366559 -0.983921,0 -1.745978,-0.289389 -0.752411,-0.289389 -1.263664,-0.85852 -0.405144,-0.472668 -0.588424,-1.01286 -0.183279,-0.549839 -0.183279,-1.572345 V 49.584991 45.45638 q 0,-1.19614 0.376205,-1.697747 0.385852,-0.511254 1.263664,-0.511254 0.877812,0 1.263664,0.511254 0.395498,0.511253 0.395498,1.697747 v 4.215428 q 0,1.379419 0.356912,1.909965 0.356913,0.5209 1.186494,0.5209 0.684886,0 1.109323,-0.443729 0.434083,-0.453376 0.434083,-1.176848 0,-0.829581 -0.974275,-1.360126 -0.356913,-0.192926 -0.549839,-0.318328 -0.299035,-0.212218 -0.424436,-0.578777 -0.125402,-0.376206 -0.125402,-1.205787 V 45.45638 q 0,-1.19614 0.376205,-1.697747 0.385852,-0.511254 1.263664,-0.511254 0.868166,0 1.254018,0.511254 0.385851,0.511253 0.385851,1.697747 z" />
      <path
         id="path843"
         style="font-style:normal;font-variant:normal;font-weight:normal;font-stretch:normal;font-size:19.7556px;font-family:'Amelia BT';-inkscape-font-specification:'Amelia BT';stroke:none;stroke-width:0.264583px"
         d="m 99.029429,46.864738 q 0,-1.090031 -0.366559,-1.553053 -0.356913,-0.463022 -1.19614,-0.463022 -0.829581,0 -1.186493,0.424437 -0.356913,0.414791 -0.356913,1.495175 v 3.154336 q 0,1.19614 0.356913,1.688101 0.356912,0.491961 1.186493,0.491961 0.839227,0 1.19614,-0.453376 0.366559,-0.463022 0.366559,-1.601284 z m -2.189707,-5.575555 q 0,-1.19614 0.376205,-1.688101 0.376205,-0.501607 1.263664,-0.501607 0.877812,0 1.263664,0.511254 0.395495,0.501607 0.395495,1.678454 v 8.778123 q 0,1.765271 -0.945334,2.652729 -0.93569,0.877813 -2.80707,0.877813 -0.926044,0 -1.726686,-0.26045 -0.800642,-0.26045 -1.263664,-0.704179 -0.41479,-0.395498 -0.59807,-0.877813 -0.173633,-0.49196 -0.173633,-1.495174 v -3.675237 q 0,-1.794209 0.954983,-2.54662 0.964629,-0.762057 3.250799,-0.790996 z" />
      <path
         id="path845"
         style="font-style:normal;font-variant:normal;font-weight:normal;font-stretch:normal;font-size:19.7556px;font-family:'Amelia BT';-inkscape-font-specification:'Amelia BT';stroke:none;stroke-width:0.264583px"
         d="m 107.58569,49.980489 v -3.154336 q 0,-1.167201 -0.35691,-1.620577 -0.35692,-0.453375 -1.1865,-0.453375 -0.83923,0 -1.20578,0.501607 -0.35692,0.501607 -0.35692,1.6881 v 3.14469 q 0,1.061092 0.35692,1.485529 0.36655,0.424437 1.20578,0.424437 0.82958,0 1.1865,-0.453376 0.35691,-0.463022 0.35691,-1.562699 z m 1.09968,0.08682 q 0,1.765271 -0.93569,2.652729 -0.93569,0.877813 -2.81672,0.877813 -0.92605,0 -1.72669,-0.26045 -0.79099,-0.26045 -1.25401,-0.704179 -0.42444,-0.395498 -0.59807,-0.877813 -0.17364,-0.49196 -0.17364,-1.495174 v -3.675237 q 0,-0.983921 0.17364,-1.466235 0.17363,-0.482315 0.59807,-0.887459 0.47266,-0.453376 1.26366,-0.713825 0.80064,-0.270097 1.71704,-0.270097 1.88103,0 2.81672,0.887459 0.93569,0.877812 0.93569,2.65273 z" />
      <path
         id="path847"
         style="font-style:normal;font-variant:normal;font-weight:normal;font-stretch:normal;font-size:19.7556px;font-family:'Amelia BT';-inkscape-font-specification:'Amelia BT';stroke:none;stroke-width:0.264583px"
         d="m 118.48599,47.810074 q 0.44373,0 0.62701,0.144695 0.18328,0.135048 0.18328,0.472668 0,0.33762 -0.18328,0.482314 -0.18328,0.144694 -0.62701,0.144694 h -3.69452 q -0.44373,0 -0.62701,-0.135048 -0.18328,-0.144694 -0.18328,-0.472668 0,-0.33762 0.18328,-0.482314 0.18328,-0.154341 0.62701,-0.154341 z" />
      <path
         id="path849"
         style="font-style:normal;font-variant:normal;font-weight:normal;font-stretch:normal;font-size:19.7556px;font-family:'Amelia BT';-inkscape-font-specification:'Amelia BT';stroke:none;stroke-width:0.264583px"
         d="m 120.33808,41.289183 q 0,-1.186494 0.38585,-1.688101 0.38585,-0.501607 1.25402,-0.501607 0.8971,0 1.27331,0.501607 0.38585,0.501607 0.38585,1.688101 v 2.556266 q 0,0.559485 0.11576,0.771704 0.1254,0.212218 0.40514,0.212218 0.0772,0 0.21222,-0.04823 0.13505,-0.05788 0.2701,-0.144694 l 1.57234,-0.93569 0.0193,-0.0096 q 0.33762,-0.202572 0.54984,-0.202572 0.18328,0 0.32798,0.183279 0.14469,0.18328 0.14469,0.385852 0,0.135048 -0.0868,0.250803 -0.0868,0.115756 -0.40514,0.318328 l -1.52411,0.993568 -0.0772,0.04823 q -0.47266,0.299035 -0.47266,0.463022 0,0.07717 0.0579,0.231511 0.0579,0.144694 0.16399,0.318327 l 2.26688,3.954979 q 0.29903,0.520899 0.40514,0.839227 0.10611,0.308681 0.10611,0.607716 0,0.588424 -0.51125,1.041799 -0.51125,0.453376 -1.1672,0.453376 -0.46302,0 -0.82958,-0.289389 -0.36656,-0.299035 -0.81029,-1.09003 l -1.45659,-2.623791 q -0.0193,-0.03858 -0.0579,-0.09646 -0.40514,-0.694533 -0.7717,-0.694533 -0.30868,0 -0.44373,0.221865 -0.13505,0.212218 -0.13505,0.762057 v 3.019288 q 0,0.434083 -0.13505,0.627009 -0.13504,0.18328 -0.43408,0.18328 -0.31833,0 -0.46302,-0.18328 -0.13505,-0.183279 -0.13505,-0.627009 z" />
      <path
         id="path851"
         style="font-style:normal;font-variant:normal;font-weight:normal;font-stretch:normal;font-size:19.7556px;font-family:'Amelia BT';-inkscape-font-specification:'Amelia BT';stroke:none;stroke-width:0.264583px"
         d="m 135.97472,49.584991 v 0.44373 q 0,0.762057 -0.1254,1.225078 -0.11576,0.453376 -0.38585,0.868166 -0.49196,0.742765 -1.32155,1.109324 -0.81993,0.366559 -1.97748,0.366559 -0.98393,0 -1.74598,-0.289389 -0.75241,-0.289389 -1.26367,-0.85852 -0.40514,-0.472668 -0.58842,-1.01286 -0.18328,-0.549839 -0.18328,-1.572345 V 49.584991 45.45638 q 0,-1.19614 0.37621,-1.697747 0.38585,-0.511254 1.26366,-0.511254 0.87781,0 1.26366,0.511254 0.3955,0.511253 0.3955,1.697747 v 4.215428 q 0,1.379419 0.35691,1.909965 0.35692,0.5209 1.1865,0.5209 0.68488,0 1.10932,-0.443729 0.43408,-0.453376 0.43408,-1.176848 0,-0.829581 -0.97427,-1.360126 -0.35691,-0.192926 -0.54984,-0.318328 -0.29904,-0.212218 -0.42444,-0.578777 -0.1254,-0.376206 -0.1254,-1.205787 V 45.45638 q 0,-1.19614 0.37621,-1.697747 0.38585,-0.511254 1.26366,-0.511254 0.86817,0 1.25402,0.511254 0.38585,0.511253 0.38585,1.697747 z" />
    </g>
  </g>
</svg>
